<svg version="1.2" xmlns="http://www.w3.org/2000/svg" viewBox="0 0 2000 2000" width="2000" height="2000">
	<style>
		.s0 { fill: #FFFFFF } 
	</style>
	<g id="Layer 1">
		<path class="s0" d="m1265.57 391.26c17.63 0.04 34.29 4.44 51.12 9.26 2.35 0.63 4.7 1.27 7.11 1.92 27.36 7.72 27.36 7.72 36.24 21.03 0.42 4.78 0.42 4.78 0.27 10.39-0.06 3.12-0.06 3.12-0.11 6.31-0.06 2.24-0.11 4.48-0.16 6.78-0.43 43.4 5.27 82.39 18.92 123.59 9.1 30.63-5.11 59.85-15.96 88.18-23.31 61.57-35.89 122.65-11.01 185.98q2.85 6.29 5.9 12.48 0.91 1.85 1.85 3.76c8.93 17.99 19.03 34.44 31.03 50.55 3.62 5.81 3.62 5.81 3.62 14.4q1.89 0.22 3.84 0.44c6.61 2.37 8.29 5.85 12.03 11.74 1.34 2.07 2.67 4.15 4.05 6.29 1.4 2.23 2.8 4.46 4.24 6.76 1.45 2.28 2.9 4.56 4.4 6.9q4.28 6.75 8.53 13.52 4.22 6.71 8.58 13.33c44.92 69.67 111.35 197.58 93.89 284.55-9.2 6.14-17.1 5.04-27.77 3.22q-2.19-0.53-4.43-1.07c-4.89-13.61-8.37-27.19-11.48-41.3-16.08-72.98-43.13-144.26-83-207.76q0.53 1.73 1.08 3.51c21.02 69.41 35.91 135.91 35.96 208.78q0 2.92 0.01 5.93c-0.04 29.32-0.89 57.88-6.99 86.66q-0.55 2.67-1.11 5.41c-13.82 64.94-42.04 118.12-84.77 168.51q-1.39 1.75-2.82 3.56c-7.29 9.13-7.29 9.13-13.95 11.2-2.33 0.13-2.33 0.13-4.7 0.27 0.98-12.35 3.04-20.08 9.53-30.87 26.57-46.8 45.79-104.04 52.16-157.54q0.54-4.56 1.14-9.13c1.59-12.85 1.96-25.56 2.02-38.51 0.01-2.21 0.03-4.42 0.04-6.7q0.06-10.67 0.06-21.34c0-2.43 0-4.85 0-7.35-0.03-34.47-0.52-68.19-6.98-102.16-0.44-2.31-0.87-4.63-1.32-7.02-4.68-25.75-4.68-25.75-11.56-50.95-0.15 2.54-0.3 5.07-0.46 7.69-9.4 156.69-43.61 330.85-167.02 441.06-40.82 32.62-40.82 32.62-64.41 30.05 0-2.83 0-5.66 0-8.58 2.13 0 4.25 0 6.44 0q0.2-1.85 0.41-3.76c2.44-6.78 6.8-9.01 12.48-13.42 3.38-3.93 6.62-7.95 9.81-12.04 3.07-2.99 3.07-2.99 9.51-2.99q0.79-2.81 1.61-5.71c2.85-7.6 6.24-12.51 11.27-18.85 32.34-41.83 58.07-88.19 79.44-136.47q1.01-2.26 2.04-4.59c25.26-58.25 38.87-119.58 47.35-182.21q0.31-2.19 0.63-4.45c3.44-24.7 4.61-49.12 4.6-74.05 0-2.9 0-2.9 0.01-5.85-0.11-64.05-10.42-126.91-23.08-189.54q-2.11-10.5-4.14-21.02-1.15-5.93-2.31-11.86-0.51-2.61-1.04-5.3c-1.62-8.46-1.62-8.46-4.73-16.44-0.81 1.94-0.81 1.94-1.63 3.92-19.29 46.09-41.7 86.84-71.37 127.06-1.33 1.83-2.66 3.67-4.03 5.56-1.32 1.77-2.64 3.54-4 5.37q-1.77 2.4-3.6 4.88-1.68 1.73-3.4 3.51c-2.13 0-4.25 0-6.44 0q-0.7 2.19-1.42 4.45c-3.71 8.11-8.79 14.17-14.55 20.91-1.58 1.93-1.58 1.93-3.19 3.89-2.77 3.27-5.75 6.35-8.76 9.4-2.12 0-4.25 0-6.44 0-0.71 2.83-1.41 5.67-2.14 8.59-2.13 0-4.26 0-6.45 0q-0.76 2.36-1.54 4.79c-3.17 6.86-6.71 10.29-12.41 15.2-2.56 2.25-2.56 2.25-5.17 4.54-4.49 3.38-4.49 3.38-8.79 3.38q0 2.11 0 4.29c-10.72 11.11-23.68 20.27-36.1 29.39-1.75 1.29-3.51 2.59-5.32 3.92-17.07 12.4-34.73 23.72-52.74 34.71q-6.15 3.8-12.21 7.75c-44.6 28.53-96.26 47.61-144.65 68.66-46.61 20.35-89.75 43.6-126.87 78.87-1.53 1.45-1.53 1.45-3.09 2.92-25.5 24.18-57.42 55.93-63.47 91.55-2.12 0-4.25 0-6.44 0q-0.12 1.76-0.24 3.57c-0.92 11.09-2.69 21.61-5.18 32.46-3.59 16.86-4.01 33.26-3.77 50.45q0.09 7.25 0.1 14.5c0.09 13.78 0.55 27.09 2.65 40.73q0.21 5.84 0.13 11.68-0.02 2.77-0.05 5.63-0.04 2.05-0.08 4.16c-3.54 0-7.08 0-10.73 0-30.46-54.31-35.23-117.79-18.86-177.45 10.49-35.21 28.23-64.16 53.21-90.93q1.65-1.8 3.35-3.65c3.05-3.21 6.28-6.24 9.53-9.24 2.13 0 4.25 0 6.44 0q0.17-1.78 0.34-3.61c2.63-7.23 7.83-11.09 13.62-15.84 1.84-1.54 1.84-1.54 3.73-3.11 14.01-11.37 29.07-21.03 44.4-30.49q6.26-3.89 12.45-7.87c16.16-10.2 32.78-18.38 50.28-26.03 13.15-5.76 25.98-11.99 38.76-18.52 18.35-9.36 36.99-17.89 55.79-26.27 50.4-22.48 99.92-47 140.6-84.96 4.91-4.34 9.92-7.94 15.37-11.56 23.81-16.17 45.73-38.05 62.8-61.13q2.05-2.34 4.16-4.76c2.13 0 4.26 0 6.45 0q0.64-2.07 1.31-4.21c4.22-9.25 10.21-16.91 16.26-25.04 10.48-14.27 20.49-28.6 29.66-43.75q-6.11 5.57-12.21 11.14-1.7 1.55-3.45 3.14c-8.34 7.62-16.42 15.45-24.23 23.62-9.03 9.3-18.53 17.13-29.08 24.63q-2.49 1.78-5.05 3.61c-32.29 22.76-66.16 42.36-101.4 60.17q-6.51 3.32-12.94 6.79c-15.35 8.1-30.8 13.95-47.22 19.41-15.74 5.36-30.71 12.05-45.82 18.99-22.07 10.09-44.26 18.31-67.35 25.71-19.22 6.19-37.61 13.55-56.08 21.68-5.71 2.45-11.47 4.76-17.26 7.05-23.75 9.46-46.64 19.91-69.19 31.98-2.27 1.21-4.53 2.41-6.86 3.65-15.23 8.33-29.06 17.88-42.93 28.29-6.44 4.29-6.44 4.29-12.88 4.29q-0.14 1.8-0.28 3.64c-2.76 7.32-8.47 10.8-14.48 15.42-38.76 31.55-66.71 80.65-72.44 130.57-1.14 13.05-1.14 26.09-1.1 39.18-0.01 2.37-0.02 4.74-0.02 7.18 0.01 13.19 0.62 26.13 1.95 39.26 0.63 6.81 0.77 13.56 0.76 20.39 0 3.49 0 3.49 0.01 7.05-0.28 5.7-0.28 5.7-2.43 9.99-2.83 0-5.67 0-8.59 0-7.4-17.25-13.9-34.49-18.92-52.6-0.66-2.38-0.66-2.38-1.34-4.82-13.33-49.58-8.82-111.66 15.97-157.29 6.38-10.56 13.51-20.56 20.81-30.49 2.47-3.4 4.83-6.88 7.17-10.37 10.59-15.62 23.41-27.66 37.51-40.02 2.72-2.41 5.38-4.89 8.02-7.39 47.64-44.68 108.93-69.29 169.11-92.08 2.44-0.93 4.88-1.87 7.4-2.83 22.52-8.57 45.12-16.85 67.96-24.55 2.21-0.74 2.21-0.74 4.47-1.5q2.2-0.75 4.48-1.51c27.46-9.26 54.16-19.15 80.34-31.69 5.21-2.45 10.47-4.77 15.76-7.07 50.2-21.88 101.71-49.13 143.38-84.93 6.46-5.47 11.25-8.26 19.74-9.1q0.33-1.92 0.68-3.89c1.71-5.47 3.32-7.74 7.91-11.14 2.84 0 5.67 0 8.59 0q0.93-2.51 1.88-5.1c2.42-5.64 2.42-5.64 6.71-9.93 2.13 0 4.25 0 6.44 0 0.93-3.06 0.93-3.06 1.88-6.17 2.42-6.71 2.42-6.71 6.71-11.01 2.12 0 4.25 0 6.44 0 0-2.12 0-4.25 0-6.44-1.83 1.51-3.66 3.02-5.55 4.58-26.15 20.89-54.86 36.14-84.63 51.25q-2.72 1.39-5.53 2.82c-49.9 25.29-102.46 44.82-157.29 55.99-14.68 3.11-28.59 7.58-42.76 12.44-23.78 7.9-47.68 14.39-72.06 20.13q-2.36 0.56-4.79 1.14-6.78 1.61-13.57 3.16c-2.6 0.6-5.2 1.2-7.87 1.81-7.64 1.3-14.75 1.5-22.49 1.27-0.7 2.13-1.41 4.25-2.14 6.44-3.7 2-3.7 2-8.57 3.71-2.71 0.98-2.71 0.98-5.47 1.98q-2.94 1.03-5.96 2.1c-42.24 15.47-83.99 33.54-120.66 59.91-5.35 3.16-5.35 3.16-13.93 3.16q0 2.11 0 4.29c-2.13 0-4.26 0-6.45 0q-0.32 1.94-0.65 3.93c-1.78 5.55-3.62 7.07-8.2 10.56-7.29 5.93-13.28 12.32-19.33 19.49q-4.16 4.82-8.58 9.41c-22 23.02-35.67 51.16-49.43 79.56-2.43 4.93-5.03 9.75-7.61 14.6-6.87 13.62-11.15 28.29-15.7 42.81-2.83 0-5.67 0-8.59 0 2.31-68.68 23.02-136.81 73.01-186.8 2.12 0 4.25 0 6.44 0q0.72-2.25 1.47-4.56c6.7-14.67 18.31-23.37 31.14-32.48 1.7-1.21 3.4-2.43 5.16-3.68 17.45-12.22 35.61-22.56 54.55-32.28 2.71-1.42 2.71-1.42 5.47-2.87 56-29.14 115.58-44.44 176.4-59.9 29.53-7.53 58.48-15.85 87.36-25.58 10.89-3.67 21.86-6.73 32.98-9.61 13.41-3.53 25.65-8.28 38.21-14.14 12.75-5.83 25.86-9.97 39.22-14.18 49.11-15.74 89.09-43.9 128.75-76.1 1.71-1.37 3.41-2.74 5.17-4.14q2.16-1.77 4.39-3.59c3.8-2.45 3.8-2.45 10.24-2.45 0.71-2.84 1.41-5.67 2.14-8.59 2.13 0 4.26 0 6.45 0 0-2.13 0-4.25 0-6.44 2.12 0 4.25 0 6.44 0q0.26-1.85 0.53-3.76c2.08-6.24 5.24-9.21 10.2-13.42q2.12 0 4.3 0c0.71-2.13 1.41-4.25 2.14-6.44 2.13 0 4.26 0 6.45 0 0.7-2.84 1.41-5.67 2.14-8.59 2.13 0 4.25 0 6.44 0q0.78-2.8 1.57-5.69c2.99-7.88 6.64-12.77 11.99-19.27 14.86-18.6 27.43-38.67 40.12-58.78q1.37-2.14 2.78-4.34c10.54-16.54 19.73-33.6 28.35-51.21q1.39-2.78 2.83-5.65c8.67-18.19 10.83-32.16 5.23-51.79q-1.23-4.48-2.43-8.96-0.61-2.24-1.23-4.54c-7.23-27.6-9.9-54.56-10.03-82.98-0.02-2.88-0.02-2.88-0.03-5.82q0-2.69 0.01-5.46 0-2.43 0.01-4.93c0.28-4.06 0.28-4.06 2.42-8.35-7.08-0.71-14.17-1.42-21.47-2.15q0.15 2.22 0.3 4.51c1.23 33.25-9.28 60.45-30.36 85.67-11.08 11.93-23.96 20.76-37.37 29.84-5.96 4.13-11.61 8.65-17.27 13.19-3.33 2.06-3.33 2.06-9.77 2.06q-0.28 1.84-0.58 3.73c-3.07 9.51-11.15 15.88-18.74 22.04-6.85 2.68-6.85 2.68-12.89 2.14-6.9-4.1-10.34-7.96-14.57-14.78-5.12-7.21-9.76-10.94-17.1-15.81q-1.79-1.21-3.63-2.45c-8.24-5.49-16.65-10.7-25.08-15.89-23.5-14.48-43.13-27.9-57.71-51.98q-1.28-1.96-2.6-3.98c-8.86-15.13-12.43-36.63-12.43-53.99-6.37 0.71-12.75 1.41-19.32 2.14 0.47 2.68 0.93 5.36 1.41 8.12 6.14 36.79 7.03 67.25-1.88 103.69-9.04 37.04 8.54 65.11 27.48 96.41 31.97 52.98 54.53 108.49 42.3 171.14-6.05 22.54-17.35 34.96-36.65 47.43-9.8 5.44-17.11 7.45-28.37 6.93 1.02-12.39 3.66-21.79 9.4-32.88 17.41-35.69 17.42-67.24 5.54-105.27-12.9-34.65-31.71-68.13-50.5-99.91-18.09-31.25-21.37-54.7-12.88-89.51 8.55-35.81 13.09-74.78 1.21-110.44-0.99-8.91-1.41-13.27 4.28-20.41 7.81-6.48 15.24-9.59 24.7-13q2.55-0.95 5.17-1.93 7.6-2.79 15.23-5.45c2.12-0.75 2.12-0.75 4.28-1.51 13.04-4.52 24.8-8.37 38.66-7.08 3.68 6.49 5.05 11.85 5.82 19.25q0.35 3.07 0.71 6.24c0.24 2.17 0.47 4.34 0.72 6.58 4.97 41.85 4.97 41.85 29.51 74.76 11.34 8.3 23.53 15.05 35.81 21.85 11.88 6.7 22.33 14.83 32.64 23.76 12.33-6.17 21.65-14.16 31.7-23.57 8.43-7.62 12.91-9.13 24.13-8.64q0.31-1.9 0.62-3.85c1.84-5.71 4.17-7.77 8.63-11.71 15-14.54 17.83-28.47 18.66-48.85q0.33-8.18 0.69-16.35 0.24-5.69 0.42-11.39c0.96-23.71 0.96-23.71 7.48-30.23zm137.41 624.81c2.15 4.29 2.15 4.29 2.15 4.29z"/>
		<path class="s0" d="m911.3 1232.92c5.51 11.04 3.58 27.26 4.16 39.59q0.13 2.8 0.27 5.68c1.44 29.98 2.34 59.97 3.09 89.97q0.07 2.66 0.13 5.4 0.69 27.12 1.28 54.24 0.23 10.36 0.48 20.71 0.11 4.83 0.2 9.66c0.56 40.07 0.56 40.07 12.39 77.9q1 2.13 2.03 4.32 2.03 4.27 4.11 8.51c1.73 3.57 3.34 7.2 4.93 10.83 9.62 20.41 25.28 29.15 45.97 36.72 97.56 28.96 250.56 4.4 342.61-37.1 5.62-2.22 5.62-2.22 14.21-2.22 0-2.12 0-4.25 0-6.44 3.74-1.76 3.74-1.76 7.55-3.56 9.42-4.73 17.74-10.35 26.13-16.7q2.2-1.67 4.47-3.38c22.95-17.74 42.56-37.92 58.47-62.24 1.4-2.11 2.8-4.22 4.25-6.39 26.05-40.62 41.47-84.13 49.99-131.47 0.4-2.11 0.79-4.22 1.2-6.4 0.5-2.84 0.5-2.84 1.01-5.73 1.52-4.6 1.52-4.6 7.96-8.9 6.58-0.49 6.58-0.49 14.09-0.4 3.72 0.02 3.72 0.02 7.52 0.04 6.3 0.36 6.3 0.36 10.59 2.51 0.99 56.63-0.87 112.99-3.76 169.54q-0.57 11.03-1.12 22.06-0.1 2.15-0.22 4.37c-1.6 32.33-2.34 64.66-2.67 97.03q-0.04 2.75-0.08 5.59-0.07 5.03-0.08 10.06c-0.12 8.02-0.76 15.89-2.04 23.81q-0.36 2.32-0.73 4.71c-3.52 6.81-7.97 7.91-15.06 10.66-7.75 0.96-15.45 0.94-23.25 0.92-2.34 0.02-4.69 0.05-7.11 0.07q-11.82 0.08-23.63 0.1-8.48 0.06-16.96 0.12-18.32 0.13-36.63 0.2-26.75 0.11-53.51 0.3-43.77 0.28-87.54 0.49-62.38 0.32-124.76 0.69-5.09 0.03-10.18 0.06-20.17 0.12-40.33 0.24-24.87 0.15-49.74 0.29c-90.31 0.52-180.61 1.26-270.92 2.63-39.35 0.58-78.7 0.8-118.05 1.04q-2.97 0.02-6.02 0.04c-7.55 0.02-12.53-0.08-19.31-3.59-4.89-5.67-3.93-10.67-3.64-17.96 0.11-3.8 0.11-3.8 0.23-7.67q0.15-2.9 0.3-5.88c11.68-5.47 23.02-8.5 35.57-11.27 16.93-3.95 31.37-9.42 46.56-17.82 4.99-2.64 8.99-4.26 14.49-5.27q0.28-2.14 0.56-4.35c2.05-8.23 5.94-15.19 9.91-22.62 16.97-32.9 17.83-65.71 17.71-102.12q0-2.41 0-4.89c0-18.55-0.23-37.09-0.9-55.63q-0.09-2.39-0.17-4.86-0.41-11.46-0.95-22.92c-0.97-23.88 0.14-41.49 16.79-59.58 26.87-28.72 63.93-49.23 98.84-66.58 4.25-2.15 8.44-4.38 12.63-6.64q3.98-2.11 7.96-4.21c2.28-1.22 4.57-2.44 6.93-3.7 7.68-2.96 13.62-3.09 21.79-2.61z"/>
		<path class="s0" d="m944.58 320.14q2.39 0 4.85 0.01c18.81 0.14 37.57 1.24 56.34 2.4 5.4 18.17 5.4 18.17 4.29 27.92-4.97 6.62-10.26 7.97-18.13 9.9-2.32 0.6-4.63 1.2-7.01 1.82q-7.25 1.81-14.51 3.59c-15.47 4.03-27.09 9.37-39.79 19.04-2.86 1.86-2.86 1.86-5.77 3.76-29.58 28.78-31.86 73.49-33.08 112.11-0.15 14.66 0.52 29.26 1.2 43.9 1.18 26.51 1.97 53.02 2.69 79.54q0.21 7.36 0.41 14.71 0.53 19.21 1.06 38.41 0.63 23.01 1.27 46.02c0.06 2.48 0.13 4.97 0.2 7.53 0.11 3.7 0.11 3.7 0.21 7.48q0.31 11.06 0.61 22.13 0.87 31.81 1.81 63.62c0.08 2.56 0.08 2.56 0.15 5.18q0.35 11.48 0.7 22.96c0.48 15.58 0.81 31.15 0.9 46.74q0.01 2.4 0.03 4.88c-0.03 6.54-0.36 11.54-2.45 17.8-14.67 8.64-32.79 11.73-49.15 15.6-27.17 6.44-53.93 13.66-80.55 22.11-11.52 3.57-21.39 6.44-33.48 5.23-4.69-4.69-2.92-15.62-3.14-22.15-0.13-3.17-0.13-3.17-0.25-6.41q-0.4-10.66-0.77-21.32-0.28-7.56-0.56-15.12c-2.41-65.74-4.47-131.49-6.55-197.25-2.52-80.02-2.52-80.02-5.91-160.02q-0.11-2.51-0.23-5.1c-0.8-17.26-1.99-34.41-3.97-51.58q-0.25-2.17-0.5-4.4c-3.8-30.99-12.26-64.17-33.94-87.77-17.72-12.07-37.17-15.94-57.98-19.33q-6.24-1.1-12.48-2.28-2.46-0.43-5-0.88c-3.99-1.13-3.99-1.13-8.28-5.42-1.12-4.27-1.12-4.27-1.75-9.26q-0.35-2.44-0.71-4.94c0.45-7.36 1.86-10.25 6.75-15.86 7.06-2.1 14.18-2.32 21.51-2.69 2.25-0.15 4.51-0.3 6.84-0.45 29.21-1.78 58.5-2.4 87.76-3.07q25.61-0.61 51.22-1.3 2.52-0.07 5.1-0.13 44.58-1.17 89.12-3.23 2.82-0.13 5.72-0.27c17.35-0.8 34.64-1.77 51.93-3.47 7.76-0.66 15.48-0.74 23.27-0.69z"/>
	</g>
</svg>
