<svg version="1.2" xmlns="http://www.w3.org/2000/svg" viewBox="0 0 2000 2000" width="2000" height="2000">
	<style>
		.s0 { fill: #000000 } 
	</style>
	<g id="Layer 1">
		<path class="s0" d="m1320.67 258.95c21.52 0.04 41.85 5.41 62.39 11.3 2.87 0.77 5.73 1.55 8.67 2.34 33.39 9.42 33.39 9.42 44.23 25.66 0.51 5.84 0.51 5.84 0.33 12.68-0.07 3.81-0.07 3.81-0.13 7.71-0.08 2.73-0.14 5.46-0.2 8.27-0.52 52.96 6.43 100.55 23.09 150.83 11.11 37.38-6.23 73.04-19.48 107.61-28.44 75.14-43.8 149.68-13.43 226.97q3.48 7.68 7.2 15.23 1.11 2.26 2.26 4.59c10.89 21.96 23.22 42.03 37.86 61.69 4.42 7.09 4.42 7.09 4.42 17.58q2.31 0.26 4.69 0.53c8.07 2.89 10.12 7.14 14.68 14.33 1.64 2.53 3.26 5.06 4.94 7.68 1.71 2.72 3.42 5.44 5.18 8.25 1.77 2.78 3.54 5.56 5.37 8.42q5.22 8.23 10.41 16.5 5.15 8.19 10.47 16.26c54.82 85.03 135.89 241.13 114.58 347.27-11.23 7.49-20.87 6.15-33.89 3.93q-2.67-0.65-5.41-1.31c-5.96-16.61-10.21-33.18-14.01-50.4-19.62-89.06-52.63-176.05-101.29-253.55q0.65 2.11 1.32 4.28c25.65 84.71 43.82 165.87 43.88 254.8q0 3.56 0.02 7.23c-0.05 35.79-1.09 70.64-8.53 105.76q-0.67 3.26-1.36 6.61c-16.86 79.25-51.3 144.15-103.45 205.65q-1.7 2.13-3.44 4.34c-8.9 11.14-8.9 11.14-17.03 13.67-2.84 0.16-2.84 0.16-5.73 0.33 1.19-15.07 3.71-24.51 11.63-37.68 32.42-57.11 55.88-126.97 63.65-192.26q0.66-5.56 1.39-11.14c1.94-15.68 2.4-31.19 2.47-47 0.01-2.69 0.04-5.39 0.05-8.17q0.07-13.02 0.07-26.05c0-2.96 0-5.91 0-8.97-0.03-42.06-0.63-83.21-8.52-124.67-0.53-2.82-1.06-5.65-1.61-8.57-5.71-31.42-5.71-31.42-14.11-62.18-0.18 3.1-0.36 6.19-0.56 9.39-11.47 191.22-53.22 403.76-203.83 538.26-49.81 39.81-49.81 39.81-78.6 36.68 0-3.46 0-6.91 0-10.47 2.6 0 5.18 0 7.86 0q0.24-2.26 0.5-4.59c2.97-8.28 8.3-11 15.23-16.38 4.12-4.8 8.08-9.7 11.97-14.69 3.75-3.65 3.75-3.65 11.61-3.65q0.96-3.43 1.96-6.97c3.48-9.28 7.62-15.27 13.75-23.01 39.47-51.04 70.87-107.62 96.95-166.54q1.23-2.76 2.49-5.6c30.83-71.09 47.44-145.94 57.79-222.37q0.38-2.68 0.77-5.43c4.19-30.15 5.62-59.95 5.61-90.37 0-3.54 0-3.54 0.01-7.14-0.13-78.17-12.71-154.88-28.16-231.32q-2.58-12.81-5.06-25.65-1.4-7.24-2.82-14.47-0.62-3.19-1.26-6.47c-1.98-10.33-1.98-10.33-5.78-20.06-0.99 2.36-0.99 2.36-1.99 4.78-23.54 56.25-50.89 105.98-87.1 155.06-1.62 2.24-3.24 4.48-4.91 6.79-1.62 2.16-3.23 4.32-4.89 6.55q-2.16 2.93-4.39 5.96-2.05 2.11-4.15 4.28c-2.6 0-5.19 0-7.86 0q-0.85 2.67-1.73 5.43c-4.53 9.9-10.73 17.29-17.76 25.52-1.93 2.36-1.93 2.36-3.89 4.75-3.38 3.99-7.02 7.75-10.69 11.47q-3.87 0-7.86 0c-0.87 3.45-1.72 6.92-2.61 10.48-2.6 0-5.2 0-7.87 0q-0.93 2.88-1.88 5.85c-3.87 8.37-8.19 12.56-15.15 18.55-3.12 2.74-3.12 2.74-6.31 5.54-5.48 4.12-5.48 4.12-10.73 4.12q0 2.58 0 5.24c-13.08 13.56-28.89 24.74-44.05 35.87q-3.19 2.35-6.49 4.78c-20.84 15.13-42.39 28.95-64.37 42.36q-7.5 4.64-14.9 9.46c-54.43 34.82-117.47 58.1-176.53 83.79-56.88 24.84-109.53 53.21-154.83 96.25-1.87 1.77-1.87 1.77-3.77 3.57-31.12 29.51-70.08 68.25-77.46 111.72q-3.87 0-7.86 0-0.15 2.15-0.29 4.36c-1.13 13.54-3.29 26.37-6.32 39.61-4.39 20.58-4.9 40.6-4.61 61.57q0.11 8.85 0.13 17.7c0.11 16.82 0.67 33.06 3.23 49.71q0.26 7.12 0.16 14.25-0.02 3.38-0.06 6.87-0.05 2.5-0.1 5.08c-4.32 0-8.64 0-13.09 0-37.18-66.28-43-143.75-23.02-216.56 12.8-42.97 34.45-78.3 64.94-110.97q2.01-2.2 4.09-4.46c3.72-3.91 7.66-7.61 11.63-11.27 2.59 0 5.18 0 7.85 0q0.21-2.17 0.42-4.41c3.21-8.82 9.56-13.53 16.62-19.33 2.25-1.88 2.25-1.88 4.55-3.79 17.1-13.88 35.48-25.67 54.19-37.21q7.64-4.75 15.19-9.61c19.72-12.45 40.01-22.43 61.36-31.77 16.05-7.03 31.71-14.63 47.31-22.6 22.39-11.42 45.14-21.83 68.08-32.06 61.51-27.43 121.94-57.36 171.59-103.68 5.99-5.3 12.11-9.69 18.76-14.11 29.06-19.73 55.81-46.44 76.64-74.6q2.5-2.86 5.08-5.81c2.6 0 5.19 0 7.87 0q0.78-2.53 1.6-5.14c5.15-11.29 12.46-20.64 19.84-30.56 12.79-17.41 25.01-34.9 36.2-53.39q-7.46 6.8-14.9 13.59-2.08 1.9-4.21 3.84c-10.18 9.3-20.04 18.85-29.57 28.82-11.03 11.35-22.62 20.91-35.49 30.06q-3.04 2.17-6.17 4.41c-39.4 27.77-80.74 51.69-123.75 73.43q-7.94 4.05-15.79 8.28c-18.73 9.89-37.59 17.03-57.62 23.69-19.21 6.54-37.48 14.71-55.92 23.18-26.94 12.31-54.02 22.34-82.2 31.37-23.45 7.56-45.9 16.54-68.44 26.46-6.96 2.99-13.99 5.81-21.06 8.61-28.98 11.54-56.92 24.29-84.44 39.02-2.77 1.48-5.53 2.94-8.37 4.46-18.59 10.16-35.47 21.82-52.39 34.52-7.86 5.24-7.86 5.24-15.72 5.24q-0.17 2.2-0.34 4.44c-3.37 8.93-10.34 13.18-17.67 18.82-47.31 38.5-81.42 98.42-88.41 159.35-1.39 15.92-1.39 31.84-1.34 47.81-0.01 2.89-0.03 5.79-0.03 8.76 0.02 16.1 0.76 31.89 2.38 47.92 0.77 8.31 0.94 16.55 0.93 24.88 0 4.26 0 4.26 0.01 8.6-0.34 6.96-0.34 6.96-2.96 12.2-3.46 0-6.92 0-10.49 0-9.03-21.06-16.96-42.1-23.09-64.2-0.8-2.9-0.8-2.9-1.63-5.88-16.27-60.51-10.77-136.27 19.49-191.96 7.78-12.88 16.49-25.09 25.39-37.2 3.02-4.15 5.9-8.4 8.76-12.66 12.92-19.06 28.56-33.76 45.77-48.84 3.32-2.94 6.57-5.97 9.79-9.02 58.14-54.53 132.94-84.56 206.38-112.37 2.98-1.14 5.96-2.29 9.03-3.46 27.48-10.46 55.07-20.56 82.94-29.96 2.7-0.9 2.7-0.9 5.45-1.83q2.69-0.91 5.47-1.84c33.51-11.3 66.1-23.37 98.05-38.68 6.36-2.99 12.78-5.82 19.23-8.62 61.27-26.71 124.13-59.96 174.98-103.65 7.89-6.68 13.73-10.08 24.09-11.11q0.41-2.34 0.83-4.74c2.09-6.68 4.05-9.45 9.66-13.6 3.46 0 6.92 0 10.48 0q1.13-3.06 2.29-6.22c2.96-6.89 2.96-6.89 8.19-12.12 2.6 0 5.19 0 7.86 0 1.14-3.74 1.14-3.74 2.3-7.53 2.95-8.19 2.95-8.19 8.19-13.44q3.86 0 7.85 0 0-3.86 0-7.86c-2.23 1.84-4.46 3.69-6.77 5.59-31.91 25.5-66.95 44.11-103.28 62.55q-3.32 1.69-6.75 3.44c-60.9 30.86-125.04 54.7-191.96 68.33-17.91 3.79-34.89 9.25-52.18 15.18-29.02 9.64-58.19 17.56-87.94 24.57q-2.88 0.68-5.85 1.39-8.27 1.96-16.56 3.85c-3.17 0.74-6.34 1.47-9.6 2.21-9.33 1.59-18 1.83-27.45 1.55-0.85 2.6-1.72 5.19-2.61 7.86-4.52 2.44-4.52 2.44-10.46 4.53-3.31 1.2-3.31 1.2-6.67 2.42q-3.59 1.25-7.28 2.56c-51.55 18.88-102.5 40.93-147.25 73.11-6.53 3.86-6.53 3.86-17 3.86q0 2.57 0 5.23c-2.6 0-5.2 0-7.87 0q-0.39 2.37-0.8 4.8c-2.17 6.77-4.41 8.63-10 12.89-8.9 7.24-16.21 15.03-23.59 23.78q-5.08 5.89-10.47 11.49c-26.85 28.09-43.54 62.43-60.33 97.09-2.96 6.02-6.14 11.9-9.29 17.82-8.38 16.62-13.6 34.53-19.16 52.25-3.45 0-6.92 0-10.48 0 2.82-83.82 28.09-166.97 89.1-227.97q3.87 0 7.86 0 0.88-2.75 1.79-5.57c8.18-17.9 22.35-28.52 38.01-39.64 2.07-1.47 4.15-2.96 6.3-4.49 21.29-14.91 43.45-27.53 66.57-39.39 3.31-1.74 3.31-1.74 6.67-3.51 68.35-35.56 141.06-54.23 215.28-73.1 36.04-9.19 71.37-19.34 106.61-31.22 13.3-4.47 26.68-8.21 40.25-11.72 16.37-4.31 31.31-10.11 46.63-17.26 15.56-7.11 31.56-12.17 47.87-17.31 59.93-19.2 108.72-53.57 157.12-92.87 2.09-1.67 4.17-3.34 6.31-5.05q2.64-2.16 5.36-4.38c4.64-2.99 4.64-2.99 12.5-2.99 0.87-3.47 1.72-6.92 2.61-10.48 2.6 0 5.2 0 7.87 0 0-2.6 0-5.19 0-7.86q3.87 0 7.86 0 0.32-2.26 0.65-4.59c2.54-7.62 6.39-11.24 12.45-16.38q2.58 0 5.24 0c0.87-2.6 1.72-5.19 2.62-7.86 2.59 0 5.19 0 7.87 0 0.85-3.47 1.72-6.92 2.61-10.48 2.6 0 5.19 0 7.86 0q0.95-3.42 1.91-6.95c3.65-9.61 8.11-15.58 14.64-23.51 18.13-22.7 33.47-47.2 48.96-71.74q1.67-2.61 3.39-5.29c12.86-20.19 24.08-41.01 34.6-62.5q1.7-3.39 3.45-6.9c10.58-22.2 13.22-39.24 6.39-63.2q-1.51-5.47-2.97-10.94-0.74-2.73-1.5-5.54c-8.82-33.68-12.08-66.58-12.24-101.26-0.03-3.52-0.03-3.52-0.04-7.11q0-3.28 0.01-6.66 0-2.97 0.02-6.02c0.34-4.95 0.34-4.95 2.95-10.19-8.64-0.86-17.29-1.73-26.2-2.62q0.18 2.71 0.36 5.5c1.51 40.58-11.32 73.78-37.05 104.55-13.52 14.56-29.24 25.34-45.6 36.42-7.28 5.04-14.17 10.56-21.08 16.1-4.06 2.51-4.06 2.51-11.92 2.51q-0.34 2.25-0.71 4.55c-3.75 11.61-13.61 19.38-22.87 26.9-8.36 3.27-8.36 3.27-15.73 2.61-8.42-5-12.62-9.71-17.78-18.03-6.25-8.8-11.91-13.36-20.87-19.3q-2.19-1.48-4.43-2.99c-10.06-6.7-20.32-13.06-30.61-19.39-28.68-17.67-52.63-34.05-70.43-63.44q-1.56-2.39-3.17-4.85c-10.81-18.47-15.17-44.71-15.17-65.89-7.77 0.86-15.56 1.72-23.58 2.61 0.57 3.27 1.14 6.54 1.72 9.91 7.5 44.9 8.58 82.07-2.29 126.54-11.03 45.2 10.42 79.46 33.53 117.66 39.02 64.66 66.55 132.4 51.63 208.86-7.39 27.51-21.18 42.66-44.73 57.88-11.96 6.64-20.88 9.09-34.62 8.46 1.24-15.12 4.46-26.59 11.47-40.13 21.25-43.55 21.26-82.06 6.76-128.47-15.74-42.29-38.7-83.15-61.63-121.93-22.08-38.14-26.08-66.75-15.72-109.24 10.44-43.7 15.98-91.26 1.48-134.78-1.21-10.87-1.72-16.19 5.22-24.91 9.53-7.9 18.6-11.7 30.14-15.86q3.12-1.16 6.31-2.36 9.28-3.4 18.59-6.65c2.59-0.91 2.59-0.91 5.22-1.84 15.92-5.52 30.27-10.21 47.18-8.64 4.5 7.92 6.17 14.46 7.11 23.49q0.42 3.75 0.86 7.62c0.3 2.65 0.58 5.29 0.88 8.03 6.07 51.07 6.07 51.07 36.02 91.23 13.84 10.13 28.71 18.37 43.7 26.67 14.5 8.18 27.25 18.1 39.83 29 15.05-7.53 26.42-17.28 38.69-28.77 10.29-9.3 15.75-11.14 29.45-10.54q0.38-2.32 0.75-4.7c2.25-6.97 5.09-9.48 10.54-14.29 18.3-17.75 21.76-34.75 22.77-59.62q0.4-9.98 0.84-19.95 0.29-6.95 0.51-13.9c1.17-28.94 1.17-28.94 9.13-36.89zm167.7 762.51c2.62 5.24 2.62 5.24 2.62 5.24z"/>
		<path class="s0" d="m888.32 1286.1c6.73 13.48 4.37 33.27 5.08 48.32q0.16 3.42 0.33 6.93c1.76 36.59 2.85 73.19 3.77 109.8q0.08 3.25 0.16 6.59 0.84 33.1 1.56 66.19 0.28 12.65 0.59 25.28 0.13 5.89 0.24 11.79c0.68 48.9 0.68 48.9 15.12 95.07q1.22 2.6 2.48 5.27 2.48 5.21 5.01 10.38c2.11 4.36 4.08 8.79 6.02 13.22 11.74 24.91 30.85 35.58 56.1 44.81 119.06 35.35 305.78 5.37 418.12-45.27 6.86-2.71 6.86-2.71 17.34-2.71q0-3.87 0-7.86c4.57-2.15 4.57-2.15 9.22-4.35 11.49-5.77 21.65-12.63 31.89-20.38q2.68-2.03 5.45-4.12c28.01-21.65 51.94-46.28 71.36-75.96 1.71-2.57 3.42-5.15 5.18-7.8 31.8-49.57 50.61-102.67 61.01-160.44 0.49-2.58 0.97-5.15 1.47-7.81 0.61-3.47 0.61-3.47 1.23-7 1.85-5.61 1.85-5.61 9.71-10.86 8.03-0.6 8.03-0.6 17.2-0.49 4.54 0.03 4.54 0.03 9.18 0.05 7.68 0.44 7.68 0.44 12.92 3.07 1.21 69.11-1.06 137.89-4.59 206.9q-0.69 13.46-1.37 26.92-0.12 2.63-0.26 5.34c-1.96 39.45-2.86 78.91-3.26 118.41q-0.05 3.36-0.1 6.82-0.09 6.14-0.1 12.28c-0.14 9.79-0.92 19.39-2.49 29.06q-0.44 2.83-0.89 5.75c-4.29 8.31-9.72 9.65-18.38 13.01-9.46 1.17-18.85 1.14-28.37 1.12-2.86 0.02-5.72 0.06-8.68 0.08q-14.42 0.1-28.84 0.13-10.35 0.07-20.69 0.14-22.36 0.16-44.71 0.25-32.64 0.13-65.3 0.36-53.42 0.35-106.83 0.6-76.13 0.39-152.26 0.84-6.21 0.04-12.42 0.08-24.62 0.14-49.22 0.29-30.35 0.18-60.71 0.35c-110.21 0.64-220.41 1.54-330.62 3.21-48.03 0.71-96.05 0.98-144.07 1.27q-3.63 0.03-7.35 0.05c-9.21 0.03-15.29-0.1-23.57-4.38-5.96-6.92-4.79-13.02-4.44-21.92 0.14-4.64 0.14-4.64 0.28-9.36q0.19-3.54 0.37-7.17c14.25-6.68 28.09-10.38 43.41-13.76 20.66-4.82 38.28-11.49 56.82-21.75 6.09-3.22 10.97-5.19 17.68-6.43q0.35-2.61 0.69-5.31c2.5-10.04 7.25-18.53 12.09-27.6 20.71-40.15 21.76-80.19 21.61-124.63q0-2.94 0-5.97c0-22.63-0.28-45.26-1.09-67.89q-0.11-2.91-0.21-5.93-0.5-13.98-1.16-27.97c-1.18-29.14 0.17-50.63 20.49-72.71 32.79-35.05 78.02-60.08 120.62-81.25 5.19-2.63 10.3-5.35 15.42-8.11q4.85-2.57 9.71-5.14c2.78-1.48 5.58-2.97 8.46-4.51 9.37-3.61 16.62-3.77 26.59-3.19z"/>
		<path class="s0" d="m928.94 172.15q2.91 0 5.92 0.01c22.95 0.17 45.85 1.52 68.75 2.93 6.59 22.18 6.59 22.18 5.24 34.08-6.07 8.07-12.52 9.72-22.13 12.08-2.83 0.73-5.65 1.46-8.55 2.22q-8.85 2.21-17.71 4.38c-18.88 4.92-33.06 11.44-48.56 23.24-3.49 2.27-3.49 2.27-7.04 4.58-36.1 35.13-38.88 89.69-40.37 136.82-0.19 17.89 0.63 35.71 1.46 53.58 1.44 32.35 2.41 64.7 3.28 97.07q0.26 8.98 0.51 17.95 0.64 23.44 1.29 46.88 0.77 28.08 1.55 56.16c0.07 3.03 0.16 6.06 0.24 9.19 0.14 4.51 0.14 4.51 0.26 9.13q0.38 13.49 0.74 27 1.07 38.83 2.21 77.65c0.1 3.12 0.1 3.12 0.19 6.32q0.42 14.01 0.85 28.02c0.59 19.01 0.99 38.01 1.1 57.04q0.01 2.93 0.03 5.95c-0.03 7.99-0.43 14.09-2.99 21.73-17.9 10.54-40.01 14.31-59.98 19.04-33.16 7.86-65.81 16.67-98.3 26.98-14.06 4.36-26.1 7.86-40.86 6.38-5.72-5.72-3.56-19.06-3.83-27.03-0.16-3.87-0.16-3.87-0.31-7.82q-0.48-13.01-0.94-26.02-0.34-9.23-0.68-18.45c-2.94-80.23-5.45-160.47-7.99-240.73-3.08-97.65-3.08-97.65-7.22-195.28q-0.13-3.07-0.28-6.23c-0.97-21.06-2.43-41.99-4.84-62.95q-0.31-2.64-0.61-5.37c-4.64-37.82-14.96-78.31-41.42-107.11-21.63-14.73-45.36-19.45-70.76-23.59q-7.62-1.34-15.23-2.78-3-0.53-6.1-1.08c-4.87-1.38-4.87-1.38-10.11-6.61-1.36-5.21-1.36-5.21-2.13-11.3q-0.43-2.98-0.87-6.03c0.55-8.98 2.27-12.51 8.24-19.36 8.61-2.56 17.3-2.83 26.25-3.28 2.74-0.18 5.5-0.37 8.35-0.55 35.64-2.17 71.39-2.93 107.1-3.75q31.25-0.74 62.51-1.58 3.07-0.09 6.22-0.16 54.41-1.43 108.76-3.94 3.44-0.16 6.98-0.33c21.18-0.98 42.28-2.16 63.38-4.24 9.47-0.8 18.89-0.9 28.4-0.84z"/>
	</g>
</svg>